# xmcd CD database file
#
# Track frame offsets:
#	150
#	18987
#	39182
#	52620
#
# Disc length: 952 seconds
#
# Revision: 0
# Processed by: cddbd v1.5PL3 Copyright (c) Steve Scherf et al.
# Submitted via: CDex 1.40Release
#
DISCID=1d03b604
DTITLE=SO-Fi - SUPER LOVE
DYEAR=1996
DGENRE=Rock
TTITLE0=SUPER LOVE
TTITLE1=ain't nobody call me
TTITLE2=BAD TRIP -THEME OF SO-Fi MUSIC FACTORY-
TTITLE3=SUPER LOVE (Vocaless)
EXTD=YEAR: 1996 ID3G: 17
EXTT0=
EXTT1=
EXTT2=
EXTT3=
PLAYORDER=
